# xmcd CD database file
#
# Track frame offsets:
#	150
#	16114
#	36578
#	54308
#	76312
#	94107
#	116083
#	134323
#	151470
#	172206
#
# Disc length: 2664 seconds
#
# Revision: 0
# Processed by: cddbd v1.5.1PL0 Copyright (c) Steve Scherf et al.
# Submitted via: CDex 1.51
#
DISCID=7f0a660a
DTITLE=Lynden David Hall - In Between Jobs
DYEAR=2005
DGENRE=General R&B
TTITLE0=Don't Hide Your Heart
TTITLE1=Stay Faithful
TTITLE2=In Between Jobs
TTITLE3=Pimps, Playa's and Hustlers
TTITLE4=Day Off
TTITLE5=Still Here With You
TTITLE6=Eventually
TTITLE7=Memories And Souvenirs
TTITLE8=(If you ain't) Comfortable
TTITLE9=Blessings
EXTD=YEAR: 2005
EXTT0=
EXTT1=
EXTT2=
EXTT3=
EXTT4=
EXTT5=
EXTT6=
EXTT7=
EXTT8=
EXTT9=
PLAYORDER=
